<svg width="24" height="24" viewBox="0 0 24 24" fill="none" xmlns="http://www.w3.org/2000/svg">
    <path fill-rule="evenodd" clip-rule="evenodd"
        d="M7.33333 14C7.33333 17.6819 10.3181 20.6667 14 20.6667C17.6819 20.6667 20.6667 17.6819 20.6667 14C20.6667 10.3181 17.6819 7.33333 14 7.33333C10.3181 7.33333 7.33333 10.3181 7.33333 14ZM14.0352 9.92592H13.9726C13.7791 9.92592 13.6182 10.0749 13.6033 10.2679L13.2827 14.4355C13.2691 14.6127 13.3832 14.7745 13.5546 14.8213L16.976 15.7544C17.0003 15.761 17.0253 15.7644 17.0504 15.7644C17.2067 15.7644 17.3333 15.6377 17.3333 15.4815V15.326C17.3333 15.1931 17.2621 15.0704 17.1467 15.0045L14.7407 13.6296L14.4037 10.2594C14.3848 10.0701 14.2255 9.92592 14.0352 9.92592Z"
        fill="#22A45D" />
    <path opacity="0.2" fill-rule="evenodd" clip-rule="evenodd"
        d="M11.2961 24C17.5348 24 20.7096 13.8 15.0615 9.6C9.41345 5.4 18.79 0 12.5513 0C6.31258 0 0 7.23532 0 13.2C0 19.1647 5.05745 24 11.2961 24Z"
        fill="#22A45D" />
</svg>
