<svg width="23" height="24" viewBox="0 0 23 24" fill="none" xmlns="http://www.w3.org/2000/svg">
    <path opacity="0.2" fill-rule="evenodd" clip-rule="evenodd"
        d="M11.2961 24C17.5348 24 20.7096 13.8 15.0615 9.6C9.41345 5.4 18.79 0 12.5513 0C6.31258 0 0 7.23532 0 13.2C0 19.1647 5.05745 24 11.2961 24Z"
        fill="#22A45D" />
    <path fill-rule="evenodd" clip-rule="evenodd"
        d="M21.3333 14C21.3333 18.6024 17.6024 22.3333 13 22.3333C8.39763 22.3333 4.66667 18.6024 4.66667 14C4.66667 9.39763 8.39763 5.66667 13 5.66667C17.6024 5.66667 21.3333 9.39763 21.3333 14ZM13.051 7.75001C12.6779 7.75001 12.3754 8.05248 12.3754 8.4256V9.32213C12.3247 9.33319 12.274 9.345 12.2234 9.35757C11.8041 9.46174 11.4276 9.62632 11.0938 9.85132C10.7601 10.0763 10.4905 10.3638 10.2851 10.7138C10.0797 11.0638 9.97705 11.4847 9.97705 11.9763C9.97705 12.3763 10.0434 12.7159 10.176 12.9951C10.3087 13.2742 10.4841 13.5117 10.7023 13.7076C10.9205 13.9034 11.1687 14.0638 11.4468 14.1888C11.7249 14.3138 12.0095 14.4222 12.3004 14.5138C12.5999 14.6055 12.8674 14.6909 13.1027 14.7701C13.338 14.8492 13.5349 14.9367 13.6932 15.0326C13.8515 15.1284 13.9734 15.2347 14.059 15.3513C14.1446 15.468 14.1874 15.6097 14.1874 15.7763C14.1874 15.9513 14.1531 16.1013 14.0847 16.2263C14.0162 16.3513 13.9242 16.4513 13.8087 16.5263C13.6932 16.6013 13.5584 16.6555 13.4043 16.6888C13.2503 16.7222 13.092 16.7388 12.9294 16.7388C12.57 16.7388 12.2084 16.6492 11.8447 16.4701C11.481 16.2909 11.1879 16.068 10.9654 15.8013L9.52778 17.2263C9.92999 17.6347 10.4349 17.9492 11.0425 18.1701C11.4759 18.3276 11.9202 18.429 12.3754 18.4741V19.5744C12.3754 19.9475 12.6779 20.25 13.051 20.25C13.4241 20.25 13.7266 19.9475 13.7266 19.5744V18.4367C13.895 18.4089 14.0614 18.3721 14.2259 18.3263C14.6452 18.2097 15.0174 18.0305 15.3426 17.7888C15.6678 17.5472 15.9267 17.2409 16.1192 16.8701C16.3118 16.4992 16.408 16.0597 16.408 15.5513C16.408 15.1097 16.3182 14.7409 16.1385 14.4451C15.9588 14.1492 15.732 13.9013 15.4582 13.7013C15.1843 13.5013 14.8805 13.3409 14.5468 13.2201C14.213 13.0992 13.8921 12.9888 13.5841 12.8888C13.3701 12.8222 13.1776 12.7576 13.0064 12.6951C12.8353 12.6326 12.6877 12.5638 12.5636 12.4888C12.4395 12.4138 12.3454 12.3263 12.2812 12.2263C12.217 12.1263 12.1849 12.0013 12.1849 11.8513C12.1849 11.6763 12.2255 11.5326 12.3068 11.4201C12.3881 11.3076 12.4887 11.2159 12.6085 11.1451C12.7283 11.0742 12.8631 11.0263 13.0128 11.0013C13.1626 10.9763 13.3102 10.9638 13.4557 10.9638C13.7381 10.9638 14.0312 11.0326 14.335 11.1701C14.6388 11.3076 14.8848 11.493 15.0731 11.7263L16.4722 10.2888C16.07 9.93049 15.6015 9.65966 15.0667 9.47632C14.6122 9.32056 14.1656 9.23097 13.7266 9.20754V8.4256C13.7266 8.05248 13.4241 7.75001 13.051 7.75001Z"
        fill="#22A45D" />
</svg>
