<svg width="133" height="131" viewBox="0 0 133 131" fill="none" xmlns="http://www.w3.org/2000/svg">
    <g filter="url(#filter0_d_258_9308)">
        <path opacity="0.1" fill-rule="evenodd" clip-rule="evenodd"
            d="M64 120C103 107.5 75 93.1371 75 60C75 26.8629 97.1371 0 64 0C30.8629 0 4 26.8629 4 60C4 93.1371 25 132.5 64 120Z"
            fill="#22A45D" />
        <path fill-rule="evenodd" clip-rule="evenodd"
            d="M118.2 36H31.8C25.68 36 21 40.68 21 46.8V97.2C21 103.32 25.68 108 31.8 108H118.2C124.32 108 129 103.32 129 97.2V46.8C129 40.68 124.32 36 118.2 36Z"
            fill="#22A45D" />
        <path opacity="0.5" fill-rule="evenodd" clip-rule="evenodd"
            d="M106 94C110.971 94 115 89.9706 115 85C115 80.0294 110.971 76 106 76C101.029 76 97 80.0294 97 85C97 89.9706 101.029 94 106 94Z"
            fill="white" />
        <path fill-rule="evenodd" clip-rule="evenodd"
            d="M98 94C102.971 94 107 89.9706 107 85C107 80.0294 102.971 76 98 76C93.0294 76 89 80.0294 89 85C89 89.9706 93.0294 94 98 94Z"
            fill="white" />
        <path fill-rule="evenodd" clip-rule="evenodd"
            d="M55.2 68.4004H62.4C63.48 68.4004 64.2 69.1204 64.2 70.2004C64.2 71.2804 63.48 72.0004 62.4 72.0004H55.2C54.12 72.0004 53.4 71.2804 53.4 70.2004C53.4 69.1204 54.12 68.4004 55.2 68.4004Z"
            fill="white" />
        <path fill-rule="evenodd" clip-rule="evenodd"
            d="M37.2 68.4004H44.4C45.48 68.4004 46.2 69.1204 46.2 70.2004C46.2 71.2804 45.48 72.0004 44.4 72.0004H37.2C36.12 72.0004 35.4 71.2804 35.4 70.2004C35.4 69.1204 36.12 68.4004 37.2 68.4004Z"
            fill="white" />
        <path fill-rule="evenodd" clip-rule="evenodd"
            d="M37.2 79.2002H55.2C56.28 79.2002 57 79.9202 57 81.0002C57 82.0802 56.28 82.8002 55.2 82.8002H37.2C36.12 82.8002 35.4 82.0802 35.4 81.0002C35.4 79.9202 36.12 79.2002 37.2 79.2002Z"
            fill="white" />
        <path fill-rule="evenodd" clip-rule="evenodd"
            d="M76.8 93.6H37.2C36.12 93.6 35.4 92.88 35.4 91.8C35.4 90.72 36.12 90 37.2 90H76.8C77.88 90 78.6 90.72 78.6 91.8C78.6 92.88 77.88 93.6 76.8 93.6Z"
            fill="white" />
        <path fill-rule="evenodd" clip-rule="evenodd"
            d="M80.4 72.0004H73.2C72.12 72.0004 71.4 71.2804 71.4 70.2004C71.4 69.1204 72.12 68.4004 73.2 68.4004H80.4C81.48 68.4004 82.2 69.1204 82.2 70.2004C82.2 71.2804 81.48 72.0004 80.4 72.0004Z"
            fill="white" />
    </g>
    <defs>
        <filter id="filter0_d_258_9308" x="0" y="0" width="133" height="130.373"
            filterUnits="userSpaceOnUse" color-interpolation-filters="sRGB">
            <feFlood flood-opacity="0" result="BackgroundImageFix" />
            <feColorMatrix in="SourceAlpha" type="matrix"
                values="0 0 0 0 0 0 0 0 0 0 0 0 0 0 0 0 0 0 127 0" result="hardAlpha" />
            <feOffset dy="4" />
            <feGaussianBlur stdDeviation="2" />
            <feComposite in2="hardAlpha" operator="out" />
            <feColorMatrix type="matrix" values="0 0 0 0 0 0 0 0 0 0 0 0 0 0 0 0 0 0 0.25 0" />
            <feBlend mode="normal" in2="BackgroundImageFix" result="effect1_dropShadow_258_9308" />
            <feBlend mode="normal" in="SourceGraphic" in2="effect1_dropShadow_258_9308"
                result="shape" />
        </filter>
    </defs>
</svg>
