<svg width="136" height="147" viewBox="0 0 136 147" fill="none" xmlns="http://www.w3.org/2000/svg">
    <path opacity="0.1" fill-rule="evenodd" clip-rule="evenodd"
        d="M116.845 111.076C142.188 78.905 110.943 82.655 92.4132 55.1831C73.8832 27.7112 77.2141 -6.93804 49.7423 11.592C22.2704 30.122 15.0216 67.4139 33.5516 94.8858C52.0816 122.358 91.5028 143.248 116.845 111.076Z"
        fill="#22A45D" />
    <path fill-rule="evenodd" clip-rule="evenodd"
        d="M110.79 40.2842C112.542 39.7652 114.498 40.4432 115.611 41.9342C116.457 43.0712 116.712 44.4842 116.316 45.8162C114.57 51.6932 109.626 56.0342 103.755 57.2372L110.562 64.0442C111.147 64.6292 111.147 65.5802 110.562 66.1652C110.268 66.4562 109.884 66.6032 109.5 66.6032C109.116 66.6032 108.732 66.4562 108.438 66.1622L100.5 58.2242L92.5621 66.1652C92.2681 66.4562 91.8841 66.6032 91.5001 66.6032C91.1161 66.6032 90.7321 66.4562 90.4381 66.1622C89.8531 65.5772 89.8531 64.6262 90.4381 64.0412L97.2451 57.2342C91.3711 56.0312 86.4301 51.6902 84.6811 45.8132C84.2851 44.4842 84.5431 43.0682 85.3891 41.9342C86.5021 40.4462 88.4611 39.7652 90.2131 40.2872C94.8841 41.6762 98.5651 45.1022 100.5 49.3892C102.435 45.0992 106.116 41.6762 110.79 40.2842ZM87.7951 43.7282C87.6331 43.9442 87.3901 44.3912 87.5581 44.9582C89.0941 50.1212 93.6331 53.8682 98.9041 54.5072C98.2651 49.2392 94.5181 44.7002 89.3551 43.1642C89.2261 43.1252 89.0971 43.1042 88.9711 43.1042C88.5271 43.1042 88.0861 43.3382 87.7951 43.7282ZM113.439 44.9582C111.903 50.1212 107.364 53.8682 102.096 54.5072C102.732 49.2392 106.479 44.6972 111.645 43.1612C111.771 43.1252 111.9 43.1042 112.029 43.1042C112.473 43.1042 112.914 43.3382 113.205 43.7282C113.367 43.9442 113.61 44.3912 113.439 44.9582ZM94.6831 68.2862C93.8311 69.1352 92.7001 69.6032 91.5001 69.6032C90.3001 69.6032 89.1691 69.1352 88.3171 68.2862C87.4651 67.4372 87.0001 66.3032 87.0001 65.1032C87.0001 63.9032 87.4681 62.7722 88.3171 61.9202L91.7521 58.4852C89.7721 57.4952 87.9991 56.1692 86.4781 54.6032H70.5001C68.0191 54.6032 66.0001 56.6222 66.0001 59.1032V68.1032C66.0001 70.5842 68.0191 72.6032 70.5001 72.6032H99.0001V63.9662L94.6831 68.2862ZM114.522 54.6032H130.5C132.981 54.6032 135 56.6222 135 59.1032V68.1032C135 70.5842 132.981 72.6032 130.5 72.6032H102V63.9662L106.317 68.2862C107.169 69.1352 108.3 69.6032 109.5 69.6032C110.7 69.6032 111.834 69.1382 112.683 68.2862C113.532 67.4342 114 66.3062 114 65.1032C114 63.9002 113.532 62.7692 112.683 61.9202L109.248 58.4852C111.228 57.4952 113.001 56.1722 114.522 54.6032ZM99.0001 75.6032H70.5001C69.9871 75.6032 69.4861 75.5492 69.0001 75.4502V98.1032C69.0001 102.237 72.3661 105.603 76.5001 105.603H99.0001V75.6032ZM130.5 75.6032H102V105.603H124.5C128.634 105.603 132 102.237 132 98.1032V75.4502C131.514 75.5492 131.013 75.6032 130.5 75.6032Z"
        fill="#22A45D" />
</svg>
