<svg width="335" height="170" viewBox="0 0 335 170" fill="none" xmlns="http://www.w3.org/2000/svg">
    <rect width="335" height="170" rx="12" fill="#E6F9F2" />
    <mask id="mask0_339_8779" style="mask-type:alpha" maskUnits="userSpaceOnUse" x="0" y="0"
        width="335" height="170">
        <rect width="335" height="170" rx="12" fill="white" />
    </mask>
    <g mask="url(#mask0_339_8779)">
        <path
            d="M320.8 7.4C320.8 6.1 319.7 5 318.4 5C317.1 5 316 6.1 316 7.4C316 7.9 316.6 8.2 317.3 8.3V10.6H319.3V8.3C320.2 8.1 320.8 7.8 320.8 7.4Z"
            fill="#FFD15C" />
        <path
            d="M272.6 27.1748C273.6 26.3748 273.8 24.8748 272.9 23.8748C272.1 22.8748 270.6 22.6748 269.6 23.5748C269.2 23.8748 269.4 24.4748 269.8 25.1748L268 26.5748L269.3 28.1748L271.1 26.6748C271.6 27.1748 272.2 27.4748 272.6 27.1748Z"
            fill="#FFD15C" />
        <path fill-rule="evenodd" clip-rule="evenodd"
            d="M315.194 24.2C315.194 23 316.194 22 317.394 22C318.694 22 319.694 23 319.594 24.2C319.594 25.4 318.594 26.4 317.394 26.4C316.194 26.4 315.194 25.4 315.194 24.2ZM315.994 24.2C315.994 25 316.594 25.6 317.394 25.6C318.194 25.6 318.794 25 318.794 24.2C318.794 23.4 318.194 22.8 317.394 22.8C316.594 22.8 315.994 23.4 315.994 24.2Z"
            fill="#FF7058" />
        <path fill-rule="evenodd" clip-rule="evenodd"
            d="M276 5.2C276 4 277 3 278.2 3C279.5 3 280.5 4 280.4 5.2C280.4 6.4 279.4 7.4 278.2 7.4C277 7.4 276 6.4 276 5.2ZM276.8 5.2C276.8 6 277.4 6.6 278.2 6.6C279 6.6 279.6 6 279.6 5.2C279.6 4.4 279 3.8 278.2 3.8C277.4 3.8 276.8 4.4 276.8 5.2Z"
            fill="#FF7058" />
        <path fill-rule="evenodd" clip-rule="evenodd"
            d="M308 35.7135C308 34.5135 309 33.5135 310.2 33.5135C311.4 33.5135 312.4 34.5135 312.4 35.7135C312.4 36.9135 311.4 37.9135 310.2 37.9135C309 37.9135 308 36.9135 308 35.7135ZM308.8 35.6135C308.8 36.4135 309.4 37.0135 310.2 37.0135C311 37.0135 311.6 36.4135 311.6 35.6135C311.6 34.8135 311 34.2135 310.2 34.2135C309.4 34.2135 308.8 34.8135 308.8 35.6135Z"
            fill="#FF7058" />
        <path
            d="M107.5 204C107.5 204 -62.5 177 167.5 162C397.5 147 326 222.5 300.5 110C275 -2.5 356.5 178.5 330 95C303.5 11.5 491 71 359.5 8C228 -55 327.5 112 192.5 61.5C57.5 11 76 -80 76 -80"
            stroke="#868686" stroke-linecap="round" stroke-dasharray="5" />
        <path
            d="M335.057 57.8493C346.479 62.6799 352.023 75.9207 347.34 87.5105C342.583 99.2857 329.212 104.885 317.529 100.164C305.94 95.4819 300.228 82.3891 304.726 70.7243L326.329 79.4527L335.057 57.8493Z"
            fill="#FF7058" />
        <path
            d="M326.329 79.4527L333.484 61.7435C342.773 65.7124 347.174 76.4424 343.391 85.8069C339.532 95.3569 328.597 99.9986 319.047 96.1401C309.683 92.3566 305.114 81.7746 308.62 72.2977L326.329 79.4527Z"
            fill="#FFD15C" />
        <path
            d="M318.034 88.5045C318.344 87.7364 317.973 86.8621 317.205 86.5518C316.437 86.2415 315.563 86.6126 315.252 87.3807C314.942 88.1488 315.313 89.023 316.081 89.3334C316.849 89.6437 317.724 89.2726 318.034 88.5045Z"
            fill="#F8B64C" />
        <path
            d="M311.589 78.0274C310.662 77.6528 309.713 78.1324 309.376 78.9668C309.001 79.894 309.481 80.8427 310.315 81.1799C310.594 81.2922 310.929 80.9963 311.246 80.4774L312.823 81.1143L313.385 79.7235L311.808 79.0867C311.996 78.6231 311.96 78.1773 311.589 78.0274Z"
            fill="#F2F2F2" />
        <path
            d="M335.738 91.667C335.407 90.8859 334.48 90.5113 333.699 90.8428C332.918 91.1744 332.543 92.1016 332.874 92.8827C332.985 93.143 333.393 93.2001 333.969 93.1093L334.577 94.5413L335.786 93.9512L335.178 92.5192C335.606 92.2608 335.849 91.9273 335.738 91.667Z"
            fill="#F2F2F2" />
        <path fill-rule="evenodd" clip-rule="evenodd"
            d="M333.217 79.7551C332.382 79.418 331.996 78.5067 332.333 77.6722C332.67 76.8378 333.581 76.451 334.416 76.7881C335.25 77.1253 335.637 78.0365 335.3 78.871C334.963 79.7054 334.051 80.0922 333.217 79.7551ZM333.442 79.1988C333.998 79.4236 334.519 79.2025 334.743 78.6462C334.931 78.1826 334.747 77.5692 334.191 77.3444C333.635 77.1197 333.114 77.3407 332.889 77.897C332.664 78.4533 332.885 78.974 333.442 79.1988Z"
            fill="#FF7058" />
        <path fill-rule="evenodd" clip-rule="evenodd"
            d="M327.762 94.5919C327.02 94.2922 326.633 93.381 326.933 92.6392C327.233 91.8975 328.106 91.6034 328.886 91.8104C329.627 92.11 330.014 93.0213 329.715 93.763C329.415 94.5048 328.504 94.8916 327.762 94.5919ZM327.987 94.0356C328.45 94.2229 328.971 94.0019 329.158 93.5383C329.346 93.0747 329.125 92.554 328.661 92.3667C328.197 92.1794 327.677 92.4004 327.489 92.864C327.302 93.3276 327.523 93.8483 327.987 94.0356Z"
            fill="#FF7058" />
        <path
            d="M319.008 59.1307L317.35 55.2253C322.52 53.1077 328.426 52.9054 334.027 55.0603L325.86 75.2729L319.008 59.1307Z"
            fill="#FF7058" />
        <path
            d="M325.86 75.2729L319.008 59.1307C323.137 57.4552 327.928 57.3418 332.416 59.0472L325.86 75.2729Z"
            fill="#FFD15C" />
        <path
            d="M330.463 59.876C330.169 59.0022 329.187 58.4975 328.313 58.7915C327.439 59.0856 326.934 60.0681 327.228 60.9419C327.301 61.2949 327.802 61.3895 328.378 61.2987L328.911 62.9161L330.268 62.4937L329.736 60.8763C330.201 60.5251 330.574 60.1364 330.463 59.876Z"
            fill="#F2F2F2" />
        <path fill-rule="evenodd" clip-rule="evenodd"
            d="M325.508 69.7379C324.673 69.4008 324.287 68.4895 324.624 67.655C324.961 66.8206 325.872 66.4338 326.707 66.7709C327.541 67.1081 327.928 68.0193 327.591 68.8538C327.254 69.6883 326.342 70.0751 325.508 69.7379ZM325.825 69.2191C326.382 69.4438 326.902 69.2228 327.127 68.6665C327.314 68.2029 327.038 67.552 326.575 67.3647C326.111 67.1774 325.498 67.361 325.273 67.9173C325.086 68.3809 325.269 68.9943 325.825 69.2191Z"
            fill="#FF7058" />
        <path fill-rule="evenodd" clip-rule="evenodd"
            d="M323.301 63.4537C322.467 63.1166 322.08 62.2053 322.417 61.3709C322.754 60.5364 323.666 60.1496 324.5 60.4867C325.335 60.8239 325.721 61.7351 325.384 62.5696C325.047 63.4041 324.136 63.7909 323.301 63.4537ZM323.619 62.9349C324.082 63.1222 324.696 62.9386 324.921 62.3823C325.145 61.826 324.832 61.2678 324.368 61.0805C323.812 60.8557 323.291 61.0768 323.066 61.6331C322.842 62.1894 323.063 62.7101 323.619 62.9349Z"
            fill="#FF7058" />
        <path
            d="M334.81 86.2229C335.203 85.2499 334.733 84.1425 333.76 83.7495C332.787 83.3564 331.68 83.8264 331.287 84.7994C330.894 85.7723 331.364 86.8797 332.337 87.2728C333.31 87.6658 334.417 87.1958 334.81 86.2229Z"
            fill="#F8B64C" />
        <path
            d="M339.174 70.0824C339.567 69.1095 339.097 68.0021 338.124 67.609C337.151 67.2159 336.044 67.686 335.651 68.6589C335.258 69.6318 335.728 70.7392 336.701 71.1323C337.674 71.5254 338.781 71.0553 339.174 70.0824Z"
            fill="#F8B64C" />
        <path
            d="M316.795 60.0701L323.647 76.2123L303.435 68.0458C305.775 62.5202 310.023 58.4125 315.137 56.1647L316.795 60.0701Z"
            fill="#FF7058" />
        <path
            d="M316.795 60.0701L323.647 76.2123L307.421 69.6567C309.312 65.2436 312.685 61.9685 316.795 60.0701Z"
            fill="#FFD15C" />
        <path fill-rule="evenodd" clip-rule="evenodd"
            d="M314.715 65.4852C313.881 65.148 313.494 64.2368 313.831 63.4023C314.168 62.5679 315.08 62.1811 315.914 62.5182C316.749 62.8554 317.135 63.7666 316.798 64.6011C316.461 65.4355 315.55 65.8223 314.715 65.4852ZM314.94 64.9289C315.497 65.1536 316.017 64.9326 316.242 64.3763C316.467 63.82 316.246 63.2993 315.689 63.0745C315.226 62.8872 314.612 63.0708 314.388 63.6271C314.163 64.1834 314.384 64.7041 314.94 64.9289Z"
            fill="#FF7058" />
        <path
            d="M319.431 71.1653C319.824 70.1923 319.354 69.085 318.381 68.6919C317.408 68.2988 316.301 68.7688 315.908 69.7418C315.514 70.7147 315.985 71.8221 316.957 72.2152C317.93 72.6083 319.038 72.1382 319.431 71.1653Z"
            fill="#F8B64C" />
        <path
            d="M311.425 66.4208C311.666 66.6259 311.739 66.979 311.534 67.2197C310.881 68.0345 311.025 69.2792 311.877 69.8392C312.118 70.0443 312.191 70.3974 311.986 70.6381C311.781 70.8788 311.428 70.9518 311.187 70.7467C309.891 69.6838 309.656 67.8631 310.626 66.5295C310.831 66.2888 311.184 66.2157 311.425 66.4208Z"
            fill="#F8B64C" />
        <path
            d="M335.082 72.2037C334.969 72.4819 334.616 72.5549 334.338 72.4425C333.486 71.8825 332.296 72.1569 331.699 73.1019C331.587 73.3801 331.233 73.4531 330.955 73.3407C330.677 73.2283 330.604 72.8753 330.716 72.5971C331.594 71.226 333.397 70.768 334.805 71.5528C335.214 71.6099 335.287 71.963 335.082 72.2037Z"
            fill="#F8B64C" />
        <path
            d="M330.061 79.5585C330.351 78.8416 330.004 78.0256 329.287 77.736C328.57 77.4463 327.755 77.7927 327.465 78.5096C327.175 79.2265 327.522 80.0424 328.238 80.3321C328.955 80.6217 329.771 80.2754 330.061 79.5585Z"
            fill="#F8B64C" />
        <path
            d="M324.233 94.7839C323.803 95.5809 322.836 95.8376 322.077 95.315C321.28 94.8851 321.023 93.9186 321.546 93.1591C321.658 92.8809 322.159 92.9755 322.66 93.0701L323.408 91.7542L324.538 92.4267L323.753 93.8352C324.179 94.1153 324.438 94.5432 324.233 94.7839Z"
            fill="#F2F2F2" />
        <path
            d="M321.677 87.4958C321.564 87.7739 321.768 88.0718 322.083 88.0914C322.993 88.2431 323.565 89.2293 323.413 90.1387C323.301 90.4168 323.504 90.7147 323.82 90.7343C324.098 90.8467 324.396 90.6435 324.415 90.3279C324.792 88.8622 323.868 87.4105 322.403 87.0341C321.994 86.9769 321.697 87.1802 321.677 87.4958Z"
            fill="#F8B64C" />
        <path
            d="M318.908 77.5329C319.018 77.7932 318.868 78.1641 318.515 78.2371C317.511 78.5865 316.969 79.6616 317.318 80.6656C317.429 80.926 317.279 81.2968 316.926 81.3699C316.666 81.4804 316.295 81.3306 316.222 80.9775C315.689 79.3601 316.548 77.7661 318.073 77.1957C318.519 77.1601 318.797 77.2725 318.908 77.5329Z"
            fill="#F8B64C" />
        <path
            d="M325.913 81.5496C326.023 81.81 325.874 82.1808 325.521 82.2539C324.517 82.6032 323.974 83.6784 324.324 84.6824C324.434 84.9427 324.284 85.3136 323.931 85.3867C323.671 85.4972 323.3 85.3473 323.227 84.9943C322.694 83.3768 323.554 81.7828 325.078 81.2125C325.562 81.0841 325.802 81.2892 325.913 81.5496Z"
            fill="#F8B64C" />
        <path
            d="M270.8 107.981V107.981H266.8C266.4 107.981 266 107.581 266 107.181C266 106.781 266.3 106.381 266.8 106.381V106.381H270.8C271.2 106.381 271.6 106.781 271.6 107.181C271.5 107.681 271.2 107.981 270.8 107.981Z"
            fill="#CD807D" />
        <path
            d="M278.5 96.0805C278.2 96.0805 278 95.8805 277.8 95.6805L276 92.0805C275.8 91.6805 276 91.2805 276.3 91.0805C276.7 90.8805 277.1 91.0805 277.3 91.3805L279.1 94.9805C279.4 95.2805 279.3 96.0805 278.5 96.0805Z"
            fill="#CD807D" />
        <path
            d="M272.8 122.081L270.8 118.581C270.6 118.181 270.7 117.781 271.1 117.581C271.5 117.381 271.9 117.481 272.1 117.881L274.1 121.381C274.3 121.781 274.2 122.181 273.8 122.381C273.5 122.581 273 122.281 272.8 122.081Z"
            fill="#84DBFF" />
        <path
            d="M267.4 118.181C268.118 118.181 268.7 117.598 268.7 116.881C268.7 116.163 268.118 115.581 267.4 115.581C266.682 115.581 266.1 116.163 266.1 116.881C266.1 117.598 266.682 118.181 267.4 118.181Z"
            fill="#FFD15C" />
        <path
            d="M269.4 99.2805C270.118 99.2805 270.7 98.6985 270.7 97.9805C270.7 97.2625 270.118 96.6805 269.4 96.6805C268.682 96.6805 268.1 97.2625 268.1 97.9805C268.1 98.6985 268.682 99.2805 269.4 99.2805Z"
            fill="#84DBFF" />
        <path fill-rule="evenodd" clip-rule="evenodd"
            d="M282.154 154.703C281.185 154.307 280.216 153.911 279.261 153.337L278.92 153.132C269.914 147.721 266.973 135.925 272.384 126.92C277.836 117.846 289.522 114.932 298.596 120.384L298.937 120.589C299.892 121.163 300.738 121.764 301.502 122.502C308.214 128.485 309.928 138.614 305.131 146.596C300.335 154.578 290.587 157.821 282.154 154.703ZM280.646 143.305C281.328 144.179 282.16 144.957 283.115 145.531L283.388 145.695C288.3 148.647 294.744 147.04 297.695 142.128C300.647 137.216 299.108 130.813 294.128 127.821L293.855 127.657C292.832 127.042 291.822 126.714 290.73 126.522C286.581 125.7 282.157 127.499 279.821 131.388C277.484 135.277 277.972 140.027 280.646 143.305Z"
            fill="#F1543F" />
        <path
            d="M290.73 126.522C291.905 124.721 293.653 123.357 295.837 122.812C297.148 122.486 298.281 121.681 298.937 120.589C299.892 121.163 300.697 121.833 301.502 122.502C300.341 124.126 298.675 125.353 296.6 125.87C295.507 126.143 294.497 126.743 293.828 127.548C292.831 127.042 291.822 126.714 290.73 126.522Z"
            fill="white" />
        <path
            d="M279.261 153.337C279.848 152.204 280.095 150.867 279.768 149.556C279.183 147.44 279.566 145.256 280.646 143.305C281.328 144.179 282.092 144.916 283.115 145.531C282.677 146.568 282.595 147.633 282.935 148.766C283.453 150.841 283.151 152.889 282.263 154.676C281.185 154.307 280.216 153.911 279.261 153.337Z"
            fill="white" />
        <path
            d="M279.768 149.556C279.251 147.481 279.566 145.256 280.645 143.305C277.972 140.027 277.525 135.208 279.82 131.388C282.157 127.499 286.581 125.7 290.73 126.522C291.905 124.721 293.653 123.357 295.837 122.812C297.148 122.486 298.213 121.64 298.937 120.589C298.801 120.507 298.732 120.466 298.596 120.384C289.522 114.932 277.836 117.846 272.384 126.92C266.932 135.993 269.846 147.68 278.919 153.132C279.056 153.214 279.124 153.255 279.26 153.337C279.848 152.204 280.095 150.867 279.768 149.556Z"
            fill="#FFD15C" />
        <path
            d="M284.368 149.627C284.409 149.559 284.45 149.491 284.559 149.463C284.778 149.409 284.914 149.491 284.9 149.668L285.336 151.416C285.391 151.634 285.309 151.771 285.131 151.757C284.913 151.811 284.776 151.729 284.79 151.552L284.354 149.805C284.354 149.805 284.327 149.695 284.368 149.627Z"
            fill="#84DBFF" />
        <path
            d="M296.502 150.604C296.612 150.577 296.68 150.618 296.748 150.659C296.884 150.741 296.939 150.959 296.789 151.055L295.75 152.473C295.668 152.61 295.45 152.664 295.355 152.514C295.218 152.432 295.164 152.214 295.314 152.118L296.352 150.699C296.284 150.658 296.393 150.631 296.502 150.604Z"
            fill="white" />
        <path
            d="M291.395 153.385C291.422 153.494 291.381 153.563 291.34 153.631C291.258 153.767 291.04 153.822 290.945 153.672L289.526 152.633C289.389 152.551 289.335 152.333 289.485 152.237C289.567 152.101 289.785 152.047 289.881 152.197L291.3 153.235C291.341 153.167 291.368 153.276 291.395 153.385Z"
            fill="#FFD15C" />
        <path
            d="M300.302 141.652C300.261 141.72 300.22 141.788 300.248 141.898C300.302 142.116 300.439 142.198 300.589 142.103L302.336 141.667C302.555 141.612 302.637 141.476 302.541 141.326C302.446 141.176 302.35 141.025 302.2 141.121L300.494 141.488C300.384 141.516 300.343 141.584 300.302 141.652Z"
            fill="#84DBFF" />
        <path
            d="M299.617 146.811C299.658 146.743 299.699 146.675 299.808 146.648C300.026 146.593 300.163 146.675 300.149 146.852L300.585 148.6C300.639 148.818 300.557 148.955 300.38 148.941C300.161 148.996 300.025 148.914 300.039 148.736L299.603 146.989C299.603 146.989 299.576 146.879 299.617 146.811Z"
            fill="#FFD15C" />
        <path
            d="M305.833 138.011C305.942 137.984 306.01 138.025 306.079 138.066C306.215 138.148 306.27 138.366 306.119 138.462L305.081 139.881C304.999 140.017 304.781 140.071 304.685 139.921C304.549 139.839 304.494 139.621 304.644 139.525L305.683 138.106C305.724 138.038 305.833 138.011 305.833 138.011Z"
            fill="#FFD15C" />
        <path
            d="M304.853 133.151C304.88 133.26 304.839 133.328 304.798 133.397C304.716 133.533 304.498 133.588 304.403 133.437L302.943 132.467C302.806 132.385 302.752 132.167 302.902 132.071C302.984 131.935 303.202 131.88 303.298 132.031L304.717 133.069C304.826 133.042 304.853 133.151 304.853 133.151Z"
            fill="white" />
        <path
            d="M300.707 128.152C300.666 128.221 300.625 128.289 300.652 128.398C300.706 128.617 300.843 128.699 300.993 128.603L302.741 128.167C302.959 128.113 303.041 127.977 302.946 127.826C302.891 127.608 302.755 127.526 302.604 127.621L300.857 128.057C300.857 128.057 300.748 128.084 300.707 128.152Z"
            fill="#84DBFF" />
        <path
            d="M299.112 125.244L299.794 125.654L301.147 123.403L300.465 122.993C299.373 122.337 298.514 121.449 297.695 120.493C297.463 120.261 297.231 120.029 296.849 119.892C295.949 119.536 294.966 119.781 294.337 120.518C293.545 121.528 293.858 123.016 294.95 123.672C295.222 123.836 295.536 123.931 295.782 123.986C296.915 124.11 298.088 124.629 299.112 125.244Z"
            fill="#F1543F" />
        <path
            d="M297.076 128.478L297.827 128.929L298.81 127.291L298.06 126.84C297.378 126.43 296.818 125.816 296.259 125.201C296.095 125.01 295.864 124.778 295.618 124.723C295.031 124.463 294.267 124.654 293.829 125.227C293.269 126.005 293.473 127.056 294.224 127.507C294.428 127.63 294.606 127.644 294.852 127.698C295.63 127.794 296.394 128.068 297.076 128.478Z"
            fill="#F1543F" />
        <path
            d="M282.454 154.048L282.932 154.335L283.588 153.244L283.11 152.957C282.632 152.67 282.237 152.247 281.841 151.823C281.746 151.673 281.541 151.55 281.405 151.468C280.954 151.29 280.476 151.467 280.162 151.836C279.766 152.34 279.889 153.064 280.434 153.392C280.571 153.474 280.707 153.556 280.816 153.529C281.417 153.611 281.977 153.761 282.454 154.048Z"
            fill="#F1543F" />
        <path
            d="M282.688 151.496L283.37 151.906L284.313 150.337L283.631 149.927C282.948 149.517 282.389 148.902 281.898 148.329C281.734 148.138 281.502 147.905 281.257 147.851C280.67 147.591 279.905 147.782 279.509 148.286C278.949 149.064 279.194 150.047 279.945 150.498C280.149 150.621 280.327 150.635 280.504 150.648C281.241 150.813 282.005 151.086 282.688 151.496Z"
            fill="#F1543F" />
    </g>
</svg>
